<svg width="100" height="120" viewBox="0 0 100 120" fill="none" xmlns="http://www.w3.org/2000/svg">
<circle cx="50" cy="60" r="50" fill="#151515"/>
<path d="M68.44 90H57.88V73.2C57.88 71.92 57.5333 70.88 56.84 70.08C56.2 69.28 55.1067 68.88 53.56 68.88H41.4V90H30.84V34H52.28C55.16 34 57.6933 34.4 59.88 35.2C62.0667 36 63.88 37.12 65.32 38.56C66.8133 39.9467 67.9333 41.5733 68.68 43.44C69.48 45.3067 69.88 47.3067 69.88 49.44V51.36C69.88 53.6533 69.2667 55.8133 68.04 57.84C66.8133 59.8133 64.92 61.3333 62.36 62.4V63.84C64.2267 64.0533 65.6933 64.7733 66.76 66C67.88 67.2267 68.44 68.7733 68.44 70.64V90ZM41.4 58.8H51.48C54.04 58.8 55.9867 58.2133 57.32 57.04C58.6533 55.8133 59.32 54.1067 59.32 51.92V50.96C59.32 49.0933 58.6533 47.4933 57.32 46.16C55.9867 44.7733 54.04 44.08 51.48 44.08H41.4V58.8Z" fill="white"/>
</svg>
